<?xml version="1.0" standalone="no"?>
<!DOCTYPE svg PUBLIC "-//W3C//DTD SVG 20010904//EN"
 "http://www.w3.org/TR/2001/REC-SVG-20010904/DTD/svg10.dtd">
<svg version="1.0" xmlns="http://www.w3.org/2000/svg"
 width="512.000000pt" height="512.000000pt" viewBox="0 0 512.000000 512.000000"
 preserveAspectRatio="xMidYMid meet">
<metadata>
Created by potrace 1.11, written by Peter Selinger 2001-2013
</metadata>
<g transform="translate(0.000000,512.000000) scale(0.100000,-0.100000)"
fill="#000000" stroke="none">
<path d="M1168 5115 c-1 -1 -25 -5 -53 -9 -210 -26 -421 -111 -595 -239 -68
-51 -206 -186 -255 -251 -133 -176 -222 -389 -252 -605 -10 -72 -10 -2850 1
-2916 40 -262 160 -505 348 -700 48 -51 107 -105 130 -121 24 -16 45 -32 48
-35 3 -4 36 -25 74 -48 141 -86 289 -142 455 -170 99 -17 199 -18 1481 -19
1526 0 1481 -2 1687 64 97 31 220 92 323 159 75 50 239 205 296 280 117 155
200 341 241 541 17 83 18 177 18 1499 0 776 -4 1435 -9 1465 -4 30 -9 64 -11
75 -4 33 -45 172 -61 213 -103 253 -289 482 -500 615 -154 96 -290 148 -504
193 -33 7 -2854 16 -2862 9z"/>
</g>
</svg>
